<svg width="256" height="256" viewBox="0 0 256 256" fill="none" xmlns="http://www.w3.org/2000/svg">
  <g clip-path="url(#clip0_1_48)">
    <path
      fill-rule="evenodd"
      clip-rule="evenodd"
      d="M256 128C256 198.692 198.692 256 128 256C57.3076 256 0 198.692 0 128C0 57.3076 57.3076 0 128 0C198.692 0 256 57.3076 256 128ZM112 64V80H144V64C144 55.1634 151.163 48 160 48C168.837 48 176 55.1634 176 64V80H192C200.837 80 208 87.1634 208 96C208 104.837 200.837 112 192 112H176V144H192C200.837 144 208 151.163 208 160C208 168.837 200.837 176 192 176H176V192C176 200.837 168.837 208 160 208C151.163 208 144 200.837 144 192V176H112V192C112 200.837 104.837 208 96 208C87.1635 208 80 200.837 80 192V176H64C55.1635 176 48 168.837 48 160C48 151.163 55.1635 144 64 144H80V112H64C55.1635 112 48 104.837 48 96C48 87.1634 55.1635 80 64 80H80V64C80 55.1634 87.1635 48 96 48C104.837 48 112 55.1634 112 64ZM144 144V112H112V144H144Z"
      fill="white"
    />
  </g>
  <defs>
    <clipPath id="clip0_1_48">
      <rect width="256" height="256" fill="white" />
    </clipPath>
  </defs>
</svg>
